<?xml version="1.0" encoding="utf-8"?>
<!-- Generator: Adobe Illustrator 21.0.0, SVG Export Plug-In . SVG Version: 6.00 Build 0)  -->
<svg version="1.1" id="Capa_1" xmlns="http://www.w3.org/2000/svg" xmlns:xlink="http://www.w3.org/1999/xlink" x="0px" y="0px"
	 viewBox="0 0 300 300" style="enable-background:new 0 0 300 300;" xml:space="preserve">
<style type="text/css">
	.st0{fill:#6A99C2;}
	.st1{fill:#5281AF;}
	.st2{fill:#F0DE84;}
	.st3{fill:#DDC738;}
	.st4{fill:#CFB339;}
	.st5{fill:#A8D6F0;}
	.st6{fill:#6AB8CF;}
	.st7{fill:none;}
	.st8{fill:#FFFFFF;}
	.st9{fill:#4674B6;}
</style>
<g>
	<g>
		<path class="st9" d="M150,221.7c-1.5,0-3-0.2-4.5-0.7L37.6,188c-6.5-2-10.8-7.8-10.8-14.6v-52.8c0-7,4.8-13.1,11.6-14.8l107.9-27
			c2.4-0.6,5-0.6,7.4,0l107.9,27c6.8,1.7,11.6,7.8,11.6,14.8v52.8c0,6.8-4.3,12.6-10.8,14.6L154.5,221
			C153,221.4,151.5,221.7,150,221.7z M150,82.3c-0.9,0-1.8,0.1-2.7,0.3l-107.9,27c-5,1.3-8.5,5.8-8.5,10.9v52.8c0,5,3.2,9.3,8,10.8
			l107.9,32.9c2.2,0.7,4.4,0.7,6.6,0l107.9-32.9c4.8-1.5,8-5.8,8-10.8v-52.8c0-5.2-3.5-9.7-8.5-10.9l-107.9-27
			C151.8,82.5,150.9,82.3,150,82.3z"/>
	</g>
	<g>
		<path class="st9" d="M43,176c-1.3,0-2.6-0.4-3.7-1.3c-1.5-1.2-2.4-3-2.4-4.9v-47.4c0-2.8,1.9-5.2,4.5-5.9l106.8-29.2
			c1.1-0.3,2.2-0.3,3.2,0L259,116.5c2.7,0.7,4.5,3.2,4.5,5.9v47.4c0,1.9-0.9,3.7-2.4,4.9c-1.5,1.2-3.5,1.6-5.4,1l-48.3-13.2l1.1-3.9
			l48.3,13.2c0.7,0.2,1.3,0,1.9-0.4c0.5-0.4,0.8-1,0.8-1.7v-47.4c0-1-0.7-1.8-1.6-2.1L150.4,91.2c-0.4-0.1-0.8-0.1-1.1,0L42.4,120.4
			c-0.9,0.3-1.6,1.1-1.6,2.1v47.4c0,0.7,0.3,1.3,0.8,1.7c0.5,0.4,1.2,0.5,1.9,0.4L90.9,159l1.1,3.9l-47.3,12.9
			C44.1,175.9,43.5,176,43,176z"/>
	</g>
	<g>
		<path class="st9" d="M100.8,130.9l-5.7,4.5c0,0-0.5,2.6-0.1,3.6c0.7,1.5,2.2,2,2.6,2.8c0.2,0.5,0,4,0,4v15l8.7-3.2v-15.1
			c0,0,0.4-1.2,2.4-0.8c2.2,0.4,2.4,2.6,2.4,2.6v16.5l8.7-3.2v-15.1c0,0,0.5-1,1.9-0.8c1.4,0.2,2.9,1,2.8,2.6
			c-0.1,1.9-0.1,2.1,0,16.5l8.5-3.2V142c0,0-0.2-6.8-6.3-7.7l0.2-2.1c0,0,0.3-1-0.2-1.3c0,0-4.3,4.7-9.1,6.6c0,0-4.7-0.1-4.2-6.6
			l-7.9,6.6c0,0-3.3-0.4-4-2.5C100.6,133,100.8,130.9,100.8,130.9z"/>
		<path class="st9" d="M172,130.9l-5.7,4.5c0,0-0.5,2.6-0.1,3.6c0.7,1.5,2.3,2,2.6,2.8c0.2,0.5,0,4,0,4v11.8l8.6,3.2v-18.3
			c0,0,0.4-1.2,2.4-0.8c2.2,0.4,2.3,2.6,2.3,2.6v13.3l8.8,3.2v-18.3c0,0,0.6-1,1.9-0.8c1.4,0.2,2.8,0.5,2.8,2.6
			c0,1.9-0.1-1.1,0,13.3l8.5,3.2V142c0,0-0.3-6.8-6.3-7.7l0.2-3.4c0,0,0.3,0.3-0.2,0c0,0-4.3,4.7-9.1,6.6c0,0-4.8-0.1-4.2-6.6
			l-7.9,6.6c0,0-3.3-0.4-4-2.5C171.8,133,172,130.9,172,130.9z"/>
		<path class="st9" d="M154.7,142.7l7.2-5.9l-10.5-13.3l-10.9,8.4c0,0-4.9,4.2-2.5,7.6c2.4,3.4,16.5,24.3,17.2,25.3
			c0.4,0.5,1.8,3.1,0.2,4.3c-1.6,1.1-3.6-1.2-3.9-1.6c-0.3-0.5-6.1-8.6-6.1-8.6s1.5-3.5-0.4-4.5c0,0-0.6-0.4-1.3,0.4
			c-0.8,0.8-6.4,6.8-6.4,6.8s2.9,10.9,14.8,10.8c11.9-0.1,12.1-11,11.3-12.2l-18-25.9c0,0-0.7-1.1,0.4-2c0.9-0.7,2,0.7,2,0.7
			L154.7,142.7z"/>
		<path class="st9" d="M177.4,162.1c0,0-7,18.3-26.4,18.3c-19.4,0-26.6-18.3-26.6-18.3l8.5-3.2c0,0,2.1,15.8,18.1,15.8
			c16,0,17.8-15.8,17.8-15.8L177.4,162.1z"/>
		<path class="st9" d="M190.9,162.1c0,0-9.9,26.8-39.9,26.8c-29.9,0-40-26.8-40-26.8l8.7-3.2c0,0,7.8,24.2,31.2,24.2
			c23.5,0,31.1-24.2,31.1-24.2L190.9,162.1z"/>
		<path class="st9" d="M204.1,162.1c0,0-10.1,35.9-53.1,35.9c-43,0-53.5-35.9-53.5-35.9l8.7-3.2c0,0,6,33.5,44.8,33.5
			c38.8,0,44.6-33.5,44.6-33.5L204.1,162.1z"/>
	</g>
	<g>
		<g>
			<path class="st9" d="M193.2,126.8c-8.7-14.7-25.1-23.8-42.7-23.8c-17.6,0-34,9.1-42.7,23.8l-3.4-2c9.4-15.9,27.1-25.8,46.1-25.8
				c19,0,36.7,9.9,46.1,25.8L193.2,126.8z"/>
		</g>
	</g>
</g>
</svg>
