<?xml version="1.0" encoding="utf-8"?>
<!-- Generator: Adobe Illustrator 21.0.0, SVG Export Plug-In . SVG Version: 6.00 Build 0)  -->
<svg version="1.1" id="Capa_1" xmlns="http://www.w3.org/2000/svg" xmlns:xlink="http://www.w3.org/1999/xlink" x="0px" y="0px"
	 viewBox="0 0 300 300" style="enable-background:new 0 0 300 300;" xml:space="preserve">
<style type="text/css">
	.st0{fill:#6A99C2;}
	.st1{fill:#5281AF;}
	.st2{fill:#F0DE84;}
	.st3{fill:#DDC738;}
	.st4{fill:#CFB339;}
	.st5{fill:#A8D6F0;}
	.st6{fill:#6AB8CF;}
	.st7{fill:none;}
	.st8{fill:#FFFFFF;}
	.st9{fill:#4674B6;}
</style>
<g>
	<path class="st5" d="M193.7,149.2l17.8-30.8c0.8-1.5,0.8-3.3,0-4.7c-0.8-1.5-2.4-2.4-4.1-2.4h-35.6l-18-31.2
		c-0.8-1.5-2.4-2.4-4.1-2.4s-3.3,0.9-4.1,2.4l-18,31.2H92.1c-1.7,0-3.3,0.9-4.1,2.4c-0.8,1.5-0.8,3.3,0,4.7l17.8,30.8L88,180
		c-0.8,1.5-0.8,3.3,0,4.7c0.8,1.5,2.4,2.4,4.1,2.4h35.6l18,31.2c0.8,1.5,2.4,2.4,4.1,2.4s3.3-0.9,4.1-2.4l18-31.2h35.6
		c1.7,0,3.3-0.9,4.1-2.4c0.8-1.5,0.8-3.3,0-4.7L193.7,149.2z M199.2,120.8l-10.9,19l-10.9-19H199.2z M182.8,149.2l-16.4,28.4h-33.2
		l-16.4-28.4l16.4-28.4h33.2L182.8,149.2z M149.8,92l11.1,19.3h-22.3L149.8,92z M100.3,120.8h21.9l-10.9,19L100.3,120.8z
		 M100.3,177.6l10.9-19l10.9,19H100.3z M149.8,206.4l-11.1-19.3h22.3L149.8,206.4z M177.3,177.6l10.9-19l10.9,19H177.3z"/>
	<path class="st6" d="M228.8,90.6c-1.2-4-3.6-7.5-6.8-9.9c0.3-1.8,0-3.3-0.9-3.6l-7.9-0.8c-0.7-0.3-1.7,0.7-2.2,2.2l-0.5,1.3
		c-0.5,1.5-0.4,2.9,0.3,3.1l6.6,4.4c0.6,0.2,1.4-0.1,2-0.9c0.3,0.3,0.6,0.6,0.9,0.9c1.1,1.3,2,2.9,2.5,4.8c0.9,3.3,0.9,7.3-0.2,11.9
		c-0.9,4-2.5,7.9-4.3,12.2c-1.8,4.2-3.8,8.1-5.9,11.8c-5.2,8.9-10.5,15.2-16.4,19.5c-3.6,2.5-7.2,4.1-10.9,4.8
		c-2.5,0.4-5.1,0.3-7.8-0.1c-0.7-0.8-1.7-1.5-2.7-1.9l-13.3-4.7c-1-0.4-2.1-0.4-3.1-0.3c-2.3-1.4-4.4-2.9-6.1-4.9
		c-2.4-2.7-4.2-6.3-5.4-10.5c-1.9-7-2.1-15.3-0.6-25.4c0.7-4.2,1.6-8.5,2.8-12.8c1.3-4.5,2.5-8.6,4.4-12.2c2.1-4.2,4.5-7.3,7.3-9.3
		c1.6-1.1,3.3-1.8,5-2.1c0.5-0.1,0.9-0.1,1.4-0.2c0.1,1,0.4,1.8,1,2l7.7,0.7c0.7,0.2,1.7-0.8,2.2-2.2l0.5-1.3
		c0.5-1.5,0.4-2.9-0.3-3.1l-6.4-4.3c-0.9-0.3-2.1,0.6-2.9,2.2c-4-0.2-8.1,1-11.6,3.4c-3.7,2.6-6.8,6.4-9.4,11.6
		c-0.9,1.9-1.8,4-2.7,6.6c-0.8,2.2-1.5,4.4-2.2,6.6c-1.4,4.6-2.5,9.1-3.3,13.5c-2,11.2-1.9,20.2,0.1,28.4c1.3,5.2,3.7,9.8,6.9,13.5
		c2.2,2.5,4.6,4.5,7.2,5.9c-0.2,5.7,0.4,18.2,1.4,21.4c-0.2,0.2-0.3,0.6-0.4,0.9l-0.4,1.7l-0.6,2.3c-0.4,1.5-0.8,3-1.3,4.6
		c-0.9,3.1-1.9,6.1-3,9c-2.3,6.4-4.9,12-7.7,17.2c-2.6,4.7-5.3,8.6-8.2,12c-1.9-1.4-3.9-3.1-5.8-4.8c-4.7-4.4-8.9-9.4-12.6-14.1
		l-2-2.5c-1.3-1.7-2.7-3.4-4.1-5.1c-2.2-2.7-4.4-5.2-7.1-7.6c-1.2-1-2.9-2.3-4.9-3.3c-0.3-0.1-0.6-0.3-1-0.4c-1.9-0.7-4-0.9-5.9-0.5
		c-3.6,0.6-7.1,2.4-10.5,5.5c-5.6,5.2-9,12.4-9.5,19.7c-0.3,3.8,0.4,7.7,1.9,11.3c1.4,3.3,3.6,6.4,6.5,9.2
		c4.5,4.3,10.2,7.6,17.9,10.3l0.6,0.2c5,1.8,12.8,3.5,21.1,1.4c6-1.4,11.9-4.7,17.1-9.6c1.6,0.9,3.1,1.7,4.7,2.4
		c1.1,0.5,2.1,0.9,3.2,1.3c5.5,1.9,11.5,2.9,17.2,2.7c7.3-0.2,14.1-1.4,20.2-3.8c8.9-3.3,16.6-9.3,22.1-16.8
		c6.7,1.8,13.7-1.9,16.1-8.5c2.5-7-1.2-14.7-8.2-17.1c-7-2.5-14.7,1.2-17.1,8.2c-1.9,5.2-0.3,10.9,3.6,14.4
		c-1.1,1.4-2.3,2.8-3.6,4.1c-4.3,4.2-9.5,7.5-15.2,9.6c-5.4,2-11.5,3.1-18,3.1c-4.9,0.1-9.7-0.7-14.3-2.3c-1.1-0.4-2.1-0.8-3.2-1.3
		c-0.8-0.4-1.7-0.8-2.5-1.2c3-3.5,5.8-7.6,8.4-12.4c3.1-5.5,5.8-11.5,8.3-18.3c1.1-3.1,2.2-6.2,3.2-9.5c0.5-1.6,0.9-3.2,1.4-4.8
		l0.6-2.4l0.5-2.1l0,0c3-2.1,11.1-11.3,14.4-15.6c2.9,0.5,6.1,0.5,9.3,0c4.7-0.8,9.5-2.9,13.8-6.1c6.7-5,12.4-12,18-21.9
		c2.2-3.9,4.2-8.1,6-12.6c0.9-2.1,1.7-4.3,2.5-6.5c0.9-2.6,1.6-4.8,2-6.9C230,99.9,230,95,228.8,90.6z M116.4,231.9
		c-5.1,1.3-10.9,0.9-16.9-1.3l-0.4-0.2c-6.4-2.3-11.3-5.1-14.9-8.5c-2.1-2-3.7-4.2-4.7-6.6c-1-2.4-1.5-5.1-1.4-7.8
		c0.3-5.3,2.9-10.7,7-14.6c1.5-1.4,3.9-3.2,6.4-3.6c0.9-0.1,1.6-0.1,2.3,0.2c0.1,0,0.2,0.1,0.4,0.1c0.9,0.4,1.9,1.1,3.1,2.1
		c2.2,1.9,4.3,4.3,6.2,6.6c1.3,1.6,2.7,3.2,4,4.9l2.1,2.7c4,4.9,8.3,10.1,13.4,14.8c1.8,1.7,3.7,3.3,5.6,4.7
		C124.7,228.7,120.6,230.9,116.4,231.9z M199,200.1c1.4-4,5.8-6.1,9.8-4.7c4,1.4,6.1,5.8,4.7,9.8c-1.1,3.2-4.1,5.1-7.3,5.1
		c-0.8,0-1.7-0.2-2.5-0.4c-1.3-0.5-2.4-1.2-3.2-2.2C198.7,205.7,198,202.8,199,200.1z"/>
</g>
</svg>
