<?xml version="1.0" encoding="utf-8"?>
<!-- Generator: Adobe Illustrator 22.0.0, SVG Export Plug-In . SVG Version: 6.00 Build 0)  -->
<svg version="1.1" id="Layer_1" xmlns="http://www.w3.org/2000/svg" xmlns:xlink="http://www.w3.org/1999/xlink" x="0px" y="0px"
	 viewBox="0 0 155 38" style="enable-background:new 0 0 155 38;" xml:space="preserve">
<style type="text/css">
	.st0{fill:#949699;}
	.st1{fill:#00BB39;}
</style>
<g>
	<g>
		<g>
			<path class="st0" d="M41.5,34c-2.2,0-4.3-0.8-5.8-2.4l-1-1l3.8-3.8l0.9,0.9c0.6,0.6,1.3,0.9,2.1,0.9c0.9,0,1.5-0.3,2.1-0.9
				c0.6-0.6,0.9-1.3,0.9-2.1c0-0.8-0.3-1.5-0.9-2.1L30.3,10c-0.6-0.6-1.3-0.9-2.1-0.9c-0.9,0-1.5,0.3-2.1,0.9
				c-0.6,0.6-0.9,1.3-0.9,2.1s0.3,1.5,0.9,2.1l2.9,2.9l-3.8,3.8l-2.8-2.8c-1.6-1.6-2.4-3.6-2.4-5.8c0-2.3,0.8-4.3,2.4-5.8
				C23.9,4.8,25.9,4,28.1,4c2.3,0,4.3,0.8,5.9,2.4l13.4,13.4c1.6,1.6,2.4,3.6,2.4,5.8s-0.8,4.3-2.4,5.8C45.7,33.2,43.8,34,41.5,34z"
				/>
		</g>
		<g>
			<path class="st1" d="M12.4,4c2.3,0,4.3,0.8,5.8,2.4l1,1l-3.8,3.8l-0.9-0.9c-0.6-0.6-1.3-0.9-2.1-0.9c-0.9,0-1.5,0.3-2.1,0.9
				s-0.9,1.3-0.9,2.1c0,0.8,0.3,1.5,0.9,2.1l13.4,13.4c0.6,0.6,1.3,0.9,2.1,0.9c0.9,0,1.5-0.3,2.1-0.9c0.6-0.6,0.9-1.3,0.9-2.1
				c0-0.9-0.3-1.5-0.9-2.1l-2.9-2.9l3.8-3.8l2.8,2.8c1.6,1.6,2.4,3.6,2.4,5.8s-0.8,4.3-2.4,5.8c-1.6,1.6-3.6,2.4-5.8,2.4
				c-2.3,0-4.3-0.8-5.9-2.4L6.6,18.1c-1.6-1.6-2.4-3.6-2.4-5.8S5,8.1,6.6,6.5C8.2,4.8,10.1,4,12.4,4z"/>
		</g>
	</g>
	<g>
		<g>
			<path class="st0" d="M67.6,16.9c-0.6,0.8-1.8,1.4-3.3,1.4c-1.7,0-3.6-0.8-3.6-2.8V10c0-1.8,1.8-2.8,3.6-2.8
				c1.4,0,2.7,0.6,3.3,1.6l0.1,0.1l0.6-0.5l-0.1-0.1c-0.7-1.1-2.2-1.8-3.9-1.8C62.2,6.5,60,7.7,60,10v5.6c0,2.3,2.2,3.5,4.3,3.5
				c1.7,0,3.1-0.7,3.9-1.8l0.1-0.1L67.6,16.9L67.6,16.9z"/>
			<path class="st0" d="M74.4,6.5c-2.2,0-4.6,1.1-4.6,3.5v5.6c0,2.4,2.4,3.5,4.6,3.5c2.3,0,4.6-1.2,4.6-3.5V10
				C79.1,7.6,76.7,6.5,74.4,6.5z M78.4,10v5.6c0,1.9-2.1,2.8-3.9,2.8s-3.9-0.8-3.9-2.8V10c0-2.1,2.1-2.8,3.9-2.8
				C76.2,7.2,78.4,7.9,78.4,10z"/>
			<polygon class="st0" points="87.3,17 91.5,7.5 91.5,18.9 92.3,18.9 92.3,6.6 91.2,6.6 86.9,16.2 82.7,6.6 81.6,6.6 81.6,18.9 
				82.4,18.9 82.4,7.6 86.6,17 			"/>
			<path class="st0" d="M89.2,25.9c-1.9-0.4-2.8-1.1-2.7-2.2c0.1-1.7,1.9-1.8,2.5-1.8l0,0c0.8,0,2.1,0.4,2.5,1.2l0.1,0.1l0.6-0.2
				l-0.1-0.1c-0.6-1-1.7-1.6-3.1-1.6l0,0c-1.6,0-3.1,0.7-3.3,2.4c-0.1,2.1,2.2,2.5,3.1,2.8c1.4,0.4,2.9,0.7,2.8,2.3
				c-0.2,1.4-1.6,1.9-2.7,1.9c-1.2,0-2.2-0.5-2.8-1.3l-0.1-0.1l-0.6,0.2l0.1,0.1c0.6,1,1.9,1.6,3.3,1.6l0,0c1.6,0,3.3-0.7,3.4-2.5
				C92.6,26.9,90.7,26.3,89.2,25.9z"/>
			<path class="st0" d="M95.2,22.8c0.5-0.5,1.3-0.8,2.3-0.8l0,0c1.1,0,2.2,0.5,2.5,1.2l0.1,0.1l0.5-0.4v-0.1
				c-0.6-0.8-1.7-1.4-3.1-1.4l0,0c-1.7,0-3.5,1-3.5,2.8v4.5c0,1.8,1.7,2.8,3.5,2.8l0,0c1.3,0,2.5-0.6,3.1-1.4l0.1-0.1l-0.6-0.2
				l-0.1,0.1c-0.5,0.7-1.4,1.1-2.5,1.1l0,0c-1.3,0-2.9-0.7-2.9-2.2v-4.5C94.5,23.6,94.7,23.2,95.2,22.8z"/>
			<polygon class="st0" points="101.9,31.4 102.6,31.4 102.6,21.6 102,21.5 			"/>
			<polygon class="st0" points="104.8,21.6 104.8,31.4 110.6,31.4 110.7,31.4 110.7,30.8 105.4,30.8 105.4,26.8 110.2,26.8 
				110.4,26.8 110.4,26.2 105.4,26.2 105.4,22.2 110.6,22.2 110.9,22.2 110.9,21.6 104.9,21.6 			"/>
			<polygon class="st0" points="118.6,30.4 113.3,21.6 113.1,21.6 112.4,21.6 112.4,31.3 112.4,31.4 113,31.4 113.1,22.7 
				118.5,31.4 118.5,31.4 118.9,31.4 118.9,31.5 118.9,31.4 119.3,31.4 119.3,21.7 119.3,21.6 118.7,21.6 			"/>
			<polygon class="st0" points="120.5,21.6 120.5,22.2 123.8,22.2 123.7,31.3 123.7,31.5 124.4,31.5 124.4,22.2 127.5,22.2 
				127.5,21.6 120.6,21.6 			"/>
			<polygon class="st0" points="134.6,22.3 134.8,22.3 134.8,21.6 129,21.6 128.8,21.6 128.7,31.4 128.7,31.5 134.6,31.5 
				134.8,31.5 134.8,30.9 129.5,30.9 129.5,26.9 134.4,26.9 134.4,26.3 129.5,26.2 129.5,22.2 			"/>
		</g>
		<g>
			<path class="st1" d="M137.1,22.7l-0.7,0.6c0,0-0.1,0.4,0,0.5c0.1,0.2,0.2,0.2,0.4,0.4c0,0.1,0,0.5,0,0.5v1.9l1.1-0.5v-1.9
				c0,0,0-0.1,0.4-0.1c0.2,0,0.4,0.4,0.4,0.4v2.2l1.2-0.5v-1.9c0,0,0.1-0.1,0.2-0.1c0.2,0,0.4,0.1,0.4,0.4c0,0.2,0,0.2,0,2.2
				l1.1-0.5v-1.9c0,0,0-0.8-0.8-1v-0.2v-0.1c0,0-0.6,0.6-1.2,0.8c0,0-0.6,0-0.6-0.8l-1.1,0.8c0,0-0.5,0-0.5-0.4
				C137.1,22.9,137.1,22.7,137.1,22.7z"/>
			<path class="st1" d="M146.5,22.7l-0.7,0.6c0,0-0.1,0.4,0,0.5c0.1,0.2,0.4,0.2,0.4,0.4c0,0.1,0,0.5,0,0.5v1.6l1.1,0.5v-2.4
				c0,0,0-0.1,0.4-0.1c0.2,0,0.4,0.4,0.4,0.4v1.8l1.2,0.5v-2.4c0,0,0.1-0.1,0.2-0.1c0.2,0,0.4,0.1,0.4,0.4c0,0.2,0-0.1,0,1.8
				l1.1,0.5v-2.4c0,0,0-0.8-0.8-1V23l0,0c0,0-0.6,0.6-1.2,0.8c0,0-0.6,0-0.6-0.8l-1.1,0.8c0,0-0.5,0-0.5-0.4
				C146.5,22.9,146.5,22.7,146.5,22.7z"/>
			<path class="st1" d="M144.2,24.3l1-0.7l-1.3-1.8l-1.4,1.1c0,0-0.6,0.6-0.4,1c0.4,0.5,2.2,3.1,2.3,3.4c0,0.1,0.2,0.4,0,0.6
				c-0.2,0.1-0.5-0.1-0.5-0.2c0-0.1-0.8-1.1-0.8-1.1s0.2-0.5,0-0.6h-0.1c-0.1,0.1-0.8,0.8-0.8,0.8s0.4,1.4,1.9,1.4
				c1.6,0,1.6-1.4,1.4-1.6l-2.4-3.4c0,0-0.1-0.1,0-0.2c0.1-0.1,0.2,0.1,0.2,0.1L144.2,24.3z"/>
			<path class="st1" d="M147.2,26.8c0,0-1,2.4-3.5,2.4c-2.5,0-3.5-2.4-3.5-2.4l1.1-0.5c0,0,0.2,2.1,2.4,2.1c2.2,0,2.3-2.1,2.3-2.1
				L147.2,26.8z"/>
			<path class="st1" d="M149,26.8c0,0-1.3,3.5-5.2,3.5c-4,0-5.3-3.5-5.3-3.5l1.2-0.5c0,0,1,3.1,4.1,3.1c3.1,0,4.1-3.1,4.1-3.1
				L149,26.8z"/>
			<path class="st1" d="M150.7,26.8c0,0-1.3,4.7-7,4.7s-7-4.7-7-4.7l1.1-0.5c0,0,0.8,4.5,5.9,4.5c5.1,0,5.9-4.5,5.9-4.5L150.7,26.8z
				"/>
		</g>
		<g>
			<path class="st1" d="M103.5,15.6c0,1.9-1.9,2.9-3.6,2.9c-1.7,0-3.6-1-3.6-2.9V6.7h-0.7v8.8c0,2.4,2.2,3.6,4.3,3.6
				s4.3-1.2,4.3-3.6V6.7h-0.7V15.6z"/>
			<polygon class="st1" points="114.7,17.9 107.8,6.7 107.8,6.6 106.9,6.6 106.9,18.9 107.6,18.9 107.7,7.8 114.4,18.8 114.5,18.9 
				115.4,18.9 115.4,6.6 114.7,6.6 			"/>
			<rect x="118.2" y="6.6" class="st1" width="0.7" height="12.2"/>
			<path class="st1" d="M126.1,6.6h-4.2v12.2h4.2c2.5,0,4-1.2,4-3.4V9.9C130.1,7.9,128.5,6.6,126.1,6.6z M126.1,7.3
				c1,0,3.3,0.2,3.3,2.7v5.6c0,2.4-2.3,2.7-3.3,2.7h-3.5V7.3C122.6,7.3,126.1,7.3,126.1,7.3z"/>
			<path class="st1" d="M135.7,6.6l-4.5,12.1l-0.1,0.2h0.8l1.6-4.2h5.2l1.6,4.2h0.7l-4.6-12.2h-0.7V6.6z M138.5,14h-4.7l2.4-6.4
				L138.5,14z"/>
			<path class="st1" d="M146.8,6.6h-4.2v12.2h4.2c2.5,0,4-1.2,4-3.4V9.9C150.8,7.9,149.4,6.6,146.8,6.6z M150.1,10v5.6
				c0,2.4-2.3,2.7-3.3,2.7h-3.5V7.3h3.5C147.8,7.3,150.1,7.6,150.1,10z"/>
			<path class="st1" d="M61.5,22.4c0.5-0.4,1.2-0.6,1.9-0.6l0,0c1.1,0,2.2,0.5,2.5,1.2l0.1,0.1l0.5-0.4l-0.1-0.1
				c-0.6-0.8-1.7-1.4-3.1-1.4l0,0c-1.7,0-3.5,1-3.5,2.8v4.5c0,0.8,0.4,1.6,1.1,2.2c0.6,0.5,1.4,0.7,2.4,0.7l0,0
				c1.3,0,2.5-0.6,3.1-1.4l0.1-0.1l-0.6-0.2l-0.1,0.1c-0.5,0.7-1.4,1.1-2.5,1.1l0,0c-1.3,0-2.9-0.7-2.9-2.2v-4.5
				C60.6,23.2,61.1,22.7,61.5,22.4z"/>
			<path class="st1" d="M71.6,21.2C71.6,21.2,71.5,21.2,71.6,21.2c-1,0-1.8,0.2-2.5,0.7c-0.7,0.5-1.2,1.2-1.2,2.2v4.5
				c0,0.7,0.2,1.3,0.7,1.8c0.6,0.6,1.8,1,2.9,1l0,0c1,0,1.8-0.2,2.5-0.7c0.7-0.5,1.2-1.2,1.2-2.2V24C75.2,22.2,73.3,21.2,71.6,21.2z
				 M71.5,30.8L71.5,30.8c-1.1,0-1.9-0.4-2.5-0.8c-0.4-0.4-0.6-0.8-0.6-1.3v-4.5c0-1.6,1.7-2.2,3-2.2c1.4,0,3.1,0.6,3.1,2.3v4.5
				C74.6,30.1,73.1,30.8,71.5,30.8z"/>
			<polygon class="st1" points="83.4,30.3 78,21.5 78,21.5 77.3,21.5 77.3,31.3 77.9,31.3 77.9,22.4 83.2,31.3 83.3,31.3 83.7,31.3 
				83.7,31.3 83.7,31.3 84,31.3 84,21.5 83.4,21.5 			"/>
		</g>
	</g>
</g>
</svg>
