<?xml version="1.0" encoding="utf-8"?>
<!-- Generator: Adobe Illustrator 21.0.0, SVG Export Plug-In . SVG Version: 6.00 Build 0)  -->
<svg version="1.1" id="Capa_1" xmlns="http://www.w3.org/2000/svg" xmlns:xlink="http://www.w3.org/1999/xlink" x="0px" y="0px"
	 viewBox="0 0 300 300" style="enable-background:new 0 0 300 300;" xml:space="preserve">
<style type="text/css">
	.st0{fill:#6A99C2;}
	.st1{fill:#5281AF;}
	.st2{fill:#F0DE84;}
	.st3{fill:#DDC738;}
	.st4{fill:#CFB339;}
	.st5{fill:#A8D6F0;}
	.st6{fill:#6AB8CF;}
	.st7{fill:none;}
	.st8{fill:#FFFFFF;}
	.st9{fill:#4674B6;}
</style>
<g>
	<path class="st0" d="M223.1,197.3c0,45.8-147.3,45.8-147.3,0l0-65.9h147.3V197.3z"/>
	<polygon class="st1" points="150,187.5 38.6,120.2 150,68.3 261.4,120.2 	"/>
	<circle class="st2" cx="150" cy="114.6" r="7"/>
	<g>
		<g>
			<path class="st2" d="M149.2,115.9c13.3,7.4,26.6,14.9,39.9,22.3c6.9,3.8,13.7,7.7,20.6,11.5c0.5,0.3,1.3,0.9,1.8,1
				c0,0,0.1-1.6-0.4-0.3c-0.4,0.9,0,2.9,0,3.8c0,2.3,0,4.6,0,7c0,8.7,0.1,17.5,0.1,26.2c0,1.9,3,1.9,3,0c0-12.6-0.1-25.2-0.1-37.9
				c0-0.5-0.3-1-0.7-1.3c-20.9-11.7-41.8-23.4-62.7-35.1C149.1,112.3,147.6,114.9,149.2,115.9L149.2,115.9z"/>
		</g>
	</g>
</g>
</svg>
