<?xml version="1.0" encoding="utf-8"?>
<!-- Generator: Adobe Illustrator 21.0.0, SVG Export Plug-In . SVG Version: 6.00 Build 0)  -->
<svg version="1.1" id="Capa_1" xmlns="http://www.w3.org/2000/svg" xmlns:xlink="http://www.w3.org/1999/xlink" x="0px" y="0px"
	 viewBox="0 0 300 300" style="enable-background:new 0 0 300 300;" xml:space="preserve">
<style type="text/css">
	.st0{fill:#6A99C2;}
	.st1{fill:#5281AF;}
	.st2{fill:#F0DE84;}
	.st3{fill:#DDC738;}
	.st4{fill:#CFB339;}
	.st5{fill:#A8D6F0;}
	.st6{fill:#6AB8CF;}
	.st7{fill:none;}
	.st8{fill:#FFFFFF;}
	.st9{fill:#4674B6;}
</style>
<g>
	<path class="st3" d="M204.1,142c1.8,5.7,2.7,11.8,2.7,18.1c0,31.2-23.3,57.1-53.4,61.1c-2.2,0.3-4.4,0.5-6.6,0.5
		c-0.5,0-1.1,0-1.6,0c-1.7,0-3.3-0.1-4.9-0.2c-31.7-2.5-56.7-29-56.7-61.4c0-32.4,25-58.9,56.7-61.4c1.6-0.1,3.3-0.2,4.9-0.2
		c0.5,0,1.1,0,1.6,0c2.2,0.1,4.4,0.2,6.6,0.5l0.1,0l2.5-18.6c-0.9-0.1-1.7-0.2-2.6-0.3c-2.2-0.2-4.4-0.4-6.6-0.4c-0.5,0-1.1,0-1.6,0
		c-1.6,0-3.3,0.1-4.9,0.2c-42.1,2.5-75.4,37.5-75.4,80.2c0,42.7,33.4,77.7,75.4,80.2c1.6,0.1,3.3,0.2,4.9,0.2c0.5,0,1.1,0,1.6,0
		c2.2,0,4.4-0.2,6.6-0.4c40.5-4.1,72.1-38.3,72.1-79.9c0-8.2-1.2-16.2-3.5-23.6L204.1,142z"/>
	<path class="st4" d="M144.7,206.3c0.5,0.6,1.2,0.9,2.1,0.9l0.1,0c0.9,0,1.6-0.3,2.2-0.9c0.5-0.6,0.8-1.3,0.8-2.1v-5.9
		c1.2-0.1,2.4-0.3,3.5-0.5c2.1-0.4,4.1-1,5.9-1.8c2.9-1.2,5.4-2.7,7.5-4.7c2.1-2,3.8-4.3,4.9-7.1c1.2-2.7,1.8-5.8,1.8-9.3
		c0-3-0.4-5.5-1.3-7.6c-0.9-2.1-2-3.9-3.6-5.4c-1.5-1.5-3.3-2.8-5.3-3.8c-1.4-0.8-3-1.5-4.6-2.1l-5.5,1.7l-6.6,2l-1.6,0.5l1.6-12
		l3.6-26.2l-0.5,0v-5.8c0-0.8-0.3-1.5-0.9-2.1c-0.6-0.6-1.3-0.9-2.1-0.9l-0.1,0c-0.8,0-1.5,0.3-2,0.9c-0.6,0.6-0.9,1.3-0.9,2.1v5.8
		c-1.2,0.1-2.4,0.2-3.6,0.4c-3.4,0.5-6.4,1.4-9,2.8c-3.5,1.8-6.3,4.2-8.2,7.4c-1.9,3.2-2.9,6.9-2.9,11.4c0,3.1,0.5,5.7,1.4,7.9
		c0.9,2.2,2.2,4.1,3.7,5.7c1.6,1.6,3.4,2.9,5.4,4c2,1.1,4.2,2.1,6.4,2.9c1.1,0.4,2.1,0.8,3.2,1.1c1.2,0.4,2.4,0.8,3.6,1.2v17.2
		c-1.3-0.1-2.5-0.3-3.6-0.5c-0.4-0.1-0.8-0.2-1.2-0.3c-1.4-0.4-2.7-0.8-4-1.3c-1.2-0.4-2.4-0.8-3.5-1.2c-1.1-0.3-2.3-0.5-3.5-0.5
		c-1.9,0-3.4,0.4-4.6,1.2c-1.2,0.8-2.1,1.7-2.6,2.8c-0.6,1.1-0.8,2.2-0.8,3.3c0,1.5,0.5,2.9,1.5,4.1c1,1.2,2.4,2.2,4.1,3.1
		c1.7,0.9,3.6,1.6,5.7,2.2c2.1,0.6,4.2,1,6.4,1.3c0.9,0.1,1.8,0.2,2.6,0.3c1.2,0.1,2.4,0.2,3.6,0.2v5.7
		C143.9,205,144.2,205.7,144.7,206.3z M149.9,168.5l2.3,0.9c0.4,0.2,0.8,0.4,1.2,0.6c0.3,0.2,0.6,0.4,0.9,0.6c0.7,0.5,1.3,1.2,1.8,2
		c0.5,0.8,0.8,1.9,0.8,3.3c0,2-0.6,3.7-1.9,4.9c-0.5,0.5-1,0.9-1.7,1.3c-1,0.6-2.2,1-3.5,1.3V168.5z M141.6,149.5
		c-0.4-0.2-0.8-0.4-1.3-0.6c-0.3-0.2-0.6-0.4-0.9-0.6c-0.8-0.5-1.4-1.2-1.9-2c-0.5-0.8-0.8-1.9-0.8-3.2c0-1.4,0.3-2.5,1-3.4
		c0.6-0.9,1.5-1.6,2.5-2.1l0.1,0c1.1-0.5,2.3-0.8,3.6-1v13.9L141.6,149.5z"/>
	<path class="st3" d="M217.2,121l17.9-5.5c-8.5-27.6-31.5-48.9-60.1-55c-1.9-0.4-3.9-0.7-5.9-1l-2.5,18.6c2.9,0.4,5.7,1,8.4,1.7
		C195.1,85.5,211.1,101.1,217.2,121z"/>
	<path class="st4" d="M170.1,134.2c-2.3-0.8-4.7-1.6-7.1-2.4v-16.2c1.6,0.1,3,0.3,4.1,0.6c1.1,0.3,2.1,0.6,3,1
		c0.9,0.3,1.7,0.6,2.5,0.9c0.7,0.2,1.5,0.3,2.4,0.4c0.1,0,0.3,0,0.4,0c1.6,0,2.9-0.3,4.1-1c1.2-0.7,2.1-1.5,2.8-2.6
		c0.7-1.1,1-2.3,1-3.6c0-1.5-0.5-2.9-1.3-4c-0.9-1.1-2-2.1-3.5-2.9c-1.1-0.6-2.3-1.1-3.5-1.5c-0.4-0.1-0.9-0.3-1.4-0.4
		c-1.8-0.5-3.6-0.9-5.4-1.1c-1.6-0.2-3.2-0.4-4.7-0.5l-5.2,38.2l13.7-4.2C171.4,134.7,170.8,134.5,170.1,134.2z"/>
</g>
</svg>
