<?xml version="1.0" encoding="utf-8"?>
<!-- Generator: Adobe Illustrator 21.0.0, SVG Export Plug-In . SVG Version: 6.00 Build 0)  -->
<svg version="1.1" id="Capa_1" xmlns="http://www.w3.org/2000/svg" xmlns:xlink="http://www.w3.org/1999/xlink" x="0px" y="0px"
	 viewBox="0 0 300 300" style="enable-background:new 0 0 300 300;" xml:space="preserve">
<style type="text/css">
	.st0{fill:#6A99C2;}
	.st1{fill:#5281AF;}
	.st2{fill:#F0DE84;}
	.st3{fill:#DDC738;}
	.st4{fill:#CFB339;}
	.st5{fill:#A8D6F0;}
	.st6{fill:#6AB8CF;}
	.st7{fill:none;}
	.st8{fill:#FFFFFF;}
	.st9{fill:#4674B6;}
</style>
<g>
	<path class="st7" d="M169.5,125c6.8,9.1,14.6,18.5,23.1,27c8.5,8.5,17.9,16.3,27,23.1c-6.8-9.1-14.6-18.5-23.1-27
		C188,139.5,178.6,131.8,169.5,125z"/>
	<path class="st4" d="M182.6,152c-8.5-8.5-16.3-17.9-23.1-27c-18.7-14-36.3-23.8-42.5-27.1c-1.9,6-1.3,12.6,2,18.3
		c8.1,14,22.4,35.5,43.2,56.2s42.3,35,56.2,43.2c5.7,3.3,12.3,3.9,18.3,2c-3.3-6.2-13.1-23.8-27.1-42.5
		C200.4,168.2,191.1,160.4,182.6,152z"/>
	<g>
		<path class="st7" d="M98.7,167.7c11.2,1.6,23.4,2.8,35.4,2.8c12,0,24.1-1.1,35.4-2.8c-11.2-1.6-23.4-2.8-35.4-2.8
			C122,165,109.9,166.1,98.7,167.7z"/>
		<path class="st4" d="M134,170.5c-12,0-24.1-1.1-35.4-2.8c-23.1,3.4-42.5,8.9-49.2,10.9c2.9,5.6,8,9.8,14.3,11.5
			c15.6,4.1,40.9,9.2,70.3,9.2s54.6-5.1,70.3-9.2c6.4-1.7,11.5-6,14.3-11.5c-6.7-2-26.1-7.5-49.2-10.9
			C158.2,169.4,146,170.5,134,170.5z"/>
		<g>
			<path class="st3" d="M47,170.6c0.3,2.8,1.1,5.5,2.4,8c6.7-2,26.1-7.5,49.2-10.9c11.2-1.6,23.4-2.8,35.4-2.8
				c12,0,24.1,1.1,35.4,2.8c23.1,3.4,42.5,8.9,49.2,10.9c1.3-2.5,2.1-5.2,2.4-8c-0.8-0.6-22.6-14.9-86.4-14.9
				C72.4,155.7,49,169.4,47,170.6z"/>
			<path class="st3" d="M216.8,153.9c-3-4.1-7.3-7.2-12.5-8.6c-15.6-4.1-40.9-9.2-70.3-9.2s-54.6,5.1-70.3,9.2
				c-5.2,1.4-9.6,4.6-12.6,8.8c13.5-5.1,39.5-11.7,83.5-11.7C178,142.4,203.5,148.9,216.8,153.9z"/>
			<path class="st8" d="M221.2,167.2c0-3.7-0.9-7.2-2.5-10.4c-0.5-1-1.2-2-1.8-2.9c-13.3-5.1-38.8-11.5-82.2-11.5
				c-44,0-70,6.6-83.5,11.7c-0.6,0.9-1.2,1.8-1.7,2.8c-1.6,3.1-2.5,6.7-2.5,10.4v1c0,0.8,0.1,1.6,0.1,2.4c2-1.3,25.4-14.9,87.6-14.9
				c63.8,0,85.6,14.3,86.4,14.9c0.1-0.8,0.1-1.6,0.1-2.4V167.2z"/>
		</g>
	</g>
	<g>
		<path class="st3" d="M121,90.5c-1.8,2.2-3.1,4.7-4,7.3c6.2,3.3,23.8,13.1,42.5,27.1c9.1,6.8,18.5,14.6,27,23.1
			c8.5,8.5,16.3,17.9,23.1,27c14,18.7,23.8,36.3,27.1,42.5c2.6-0.8,5.1-2.2,7.3-4c-0.2-1-5.5-26.5-50.6-71.6
			C149.5,97.9,123.3,91.1,121,90.5z"/>
		<path class="st3" d="M252.8,198.8c0.8-5-0.1-10.3-2.8-14.9c-8.1-14-22.4-35.5-43.2-56.2s-42.3-35-56.2-43.2
			c-4.7-2.7-10-3.6-15.1-2.7c13.1,5.9,36.2,19.6,67.3,50.8C233.5,163.2,247,185.7,252.8,198.8z"/>
		<path class="st8" d="M246.5,211.2c2.6-2.6,4.5-5.8,5.5-9.1c0.4-1.1,0.6-2.2,0.8-3.4c-5.8-13-19.3-35.6-50-66.3
			c-31.1-31.1-54.2-44.8-67.3-50.8c-1.1,0.2-2.1,0.4-3.2,0.7c-3.4,1.1-6.5,2.9-9.1,5.5l-0.7,0.7c-0.6,0.6-1.1,1.2-1.6,1.8
			c2.3,0.5,28.5,7.4,72.5,51.4c45.1,45.1,50.4,70.7,50.6,71.6c0.6-0.5,1.2-1,1.8-1.6L246.5,211.2z"/>
	</g>
</g>
</svg>
